<?xml version="1.0" encoding="utf-8"?>
<!-- Generator: Adobe Illustrator 23.0.1, SVG Export Plug-In . SVG Version: 6.00 Build 0)  -->
<svg version="1.1" id="Layer_1" xmlns="http://www.w3.org/2000/svg" xmlns:xlink="http://www.w3.org/1999/xlink" x="0px" y="0px"
	 width="32px" height="32px" viewBox="0 0 32 32" style="enable-background:new 0 0 32 32;" xml:space="preserve">
<style type="text/css">
	.st0{fill:#FFFFFF;}
</style>
<g id="Guides__x26__Labels">
</g>
<g>
	<rect x="14" y="3" class="st0" width="4" height="3"/>
	<rect x="24" y="6.5" transform="matrix(0.7071 -0.7071 0.7071 0.7071 1.5043 20.5398)" class="st0" width="3" height="4"/>
	<path class="st0" d="M16,8C10.5,8,6,12.5,6,18s4.5,10,10,10s10-4.5,10-10S21.5,8,16,8z M16,20c-1.1,0-2-0.9-2-2
		c0-0.3,0.6-4.9,0.9-7c0.1-0.6,0.6-1,1.1-1h0c0.6,0,1.1,0.4,1.1,1c0.3,2.1,0.9,6.7,0.9,7C18,19.1,17.1,20,16,20z"/>
</g>
</svg>
